<?xml version="1.0" encoding="UTF-8"?>
<svg version="1.1" xmlns="http://www.w3.org/2000/svg" width="400" height="400">
<path d="M0 0 C132 0 264 0 400 0 C400 132 400 264 400 400 C268 400 136 400 0 400 C0 268 0 136 0 0 Z " fill="#465B45" transform="translate(0,0)"/>
<path d="M0 0 C0.85303711 0.02658691 1.70607422 0.05317383 2.58496094 0.08056641 C18.24030887 0.75210025 44.46824737 6.46824737 56 18 C55.95253957 23.6359264 55.17539184 29.82460816 51 34 C46.41228154 33.7961014 42.93571835 32.61684213 38.75 30.75 C14.03271691 20.29620456 -13.76939327 19.42449983 -38.97314453 29.15478516 C-50.47316843 33.95038655 -61.05530493 40.54475429 -71 48 C-71.88558594 48.66128906 -72.77117187 49.32257813 -73.68359375 50.00390625 C-100.8049642 71.24159158 -127.035821 104.84059363 -132 140 C-133.75955859 171.03854714 -133.75955859 171.03854714 -120.95703125 198.5546875 C-118.65135486 201.04935376 -116.33245321 203.53034366 -114 206 C-113.35546875 206.7321875 -112.7109375 207.464375 -112.046875 208.21875 C-104.86216871 216.02575369 -95.87898713 221.34064961 -87 227 C-85.44885278 228.00334069 -83.89806732 229.0072409 -82.34765625 230.01171875 C-50.83932292 251.30640951 -50.83932292 251.30640951 -14.6875 259.4375 C-13.61048828 259.47037109 -12.53347656 259.50324219 -11.42382812 259.53710938 C-2.54941836 259.59623627 3.88477318 257.53425362 10.65625 251.71875 C11.56890625 250.62046875 11.56890625 250.62046875 12.5 249.5 C13.1290625 248.7678125 13.758125 248.035625 14.40625 247.28125 C17.49990852 242.85307211 18.5894164 238.74048167 18.4296875 233.3984375 C17.25097886 226.81910016 12.78445271 222.28684364 7.47265625 218.578125 C2.15782972 214.96036421 -3.39432599 212.13820894 -9.1875 209.375 C-68.08425941 180.55865841 -68.08425941 180.55865841 -80 149 C-80.34289062 148.14148438 -80.68578125 147.28296875 -81.0390625 146.3984375 C-85.76849743 132.47533467 -84.40258385 116.05016454 -78 103 C-77.5153125 102.00097656 -77.030625 101.00195312 -76.53125 99.97265625 C-65.98354528 80.29911877 -47.37018921 62.8702808 -26 56 C-25.31035156 55.77570313 -24.62070313 55.55140625 -23.91015625 55.3203125 C3.76574422 47.795766 32.01272024 65.98876065 55 79 C71.62128949 88.5224286 88.42168825 98.50063764 103 111 C103.8146875 111.65871094 104.629375 112.31742187 105.46875 112.99609375 C123.32862265 128.01712862 134.85009198 152.88244975 137 176 C138.62701348 220.77328206 127.72750193 262.53667161 97.1875 296.5625 C95.79252365 298.0424749 94.39676434 299.52171245 93 301 C91.84935973 302.35008458 90.7033304 303.70411589 89.5625 305.0625 C67.67599198 329.93353185 31.86014913 348.09384173 -1.24316406 350.20703125 C-16.03913678 350.80381494 -30.49735054 350.01400607 -45 347 C-45.66354492 346.86609863 -46.32708984 346.73219727 -47.01074219 346.59423828 C-59.26069886 344.02268249 -73.49590437 339.41469337 -83 331 C-82.5758071 329.05954312 -82.13514005 327.12268239 -81.6875 325.1875 C-81.44386719 324.10855469 -81.20023437 323.02960938 -80.94921875 321.91796875 C-79.48837797 317.42723598 -79.48837797 317.42723598 -77 316 C-71.87199477 316.21520406 -67.78430586 317.76302805 -63.125 319.8125 C-41.51486889 328.69675437 -16.28287814 331.05722096 6 323 C6.66966797 322.76394043 7.33933594 322.52788086 8.02929688 322.28466797 C46.79718288 308.37879581 78.42183544 276.68874391 96.03125 239.83203125 C102.86355004 224.98166009 106.17851447 211.19311718 106.1875 194.8125 C106.19974609 193.65685547 106.21199219 192.50121094 106.22460938 191.31054688 C106.25279311 174.578804 103.50389544 160.55641878 92 148 C91.55543457 147.50242188 91.11086914 147.00484375 90.65283203 146.4921875 C82.56111111 137.51919004 73.57628032 130.87637038 63.36474609 124.48388672 C61.01725523 123.01082772 58.68885313 121.51128494 56.36328125 120.00390625 C24.55736686 98.55458106 24.55736686 98.55458106 -12 90.6875 C-13.0415625 90.67138672 -14.083125 90.65527344 -15.15625 90.63867188 C-22.70191889 90.6339082 -28.47091071 91.31017715 -34.64453125 96.015625 C-40.26209238 101.80525557 -43.44732368 105.71675851 -44.5 113.875 C-44.26563259 118.91389935 -42.17800701 123.1466665 -39 127 C-33.12101736 132.1952733 -26.26768332 135.78242898 -19.375 139.4375 C-18.30757568 140.01024658 -17.24015137 140.58299316 -16.14038086 141.1730957 C-10.65650874 144.10307523 -5.14785583 146.95659261 0.4375 149.6875 C22.88993052 160.79094984 43.67270955 173.61863286 53 198 C53.41378906 199.06734375 53.82757813 200.1346875 54.25390625 201.234375 C59.91843625 218.05033167 58.02860804 234.28540911 50.53125 250.09765625 C38.59703095 272.29881374 19.13074075 287.37982351 -4.4921875 295.1484375 C-35.20812407 302.60509025 -69.03798459 278.43779594 -93.82128906 263.45898438 C-106.00630369 255.99313567 -118.13432365 248.3188929 -129 239 C-129.82628906 238.3296875 -130.65257812 237.659375 -131.50390625 236.96875 C-145.4732879 225.19608027 -153.27150367 208.94098071 -158.875 191.875 C-159.1735791 190.98111572 -159.4721582 190.08723145 -159.77978516 189.16625977 C-161.88330269 182.44910889 -162.69025898 176.01855202 -163 169 C-163.04447266 168.00516602 -163.08894531 167.01033203 -163.13476562 165.98535156 C-164.60687822 122.80801142 -150.20745228 84.6212083 -122 52 C-121.28328125 51.16082031 -120.5665625 50.32164063 -119.828125 49.45703125 C-100.31760191 27.14446495 -73.67943499 10.60868866 -45 3 C-43.79601562 2.66355469 -42.59203125 2.32710937 -41.3515625 1.98046875 C-27.83599913 -1.17508389 -13.780435 -0.45225366 0 0 Z " fill="#FDFDFD" transform="translate(213,25)"/>
</svg>
